<svg xmlns="http://www.w3.org/2000/svg" viewBox="0 0 1270.7027 328.37838"><title>ge-aerospace-logo-freelogovectors.net</title><path d="M494.58263,458.79388V341.2061h59.12591v12.93837H509.35682v38.63932h41.50042v12.5966H509.35682v40.48487h44.35172v12.93837H494.58266Zm125.48749-48.55061,15.4577-55.6008,15.4577,55.6008h-30.9154Zm-13.43638,48.55061,10.07728-36.12H654.5106l10.07729,36.12h15.4577L645.10715,341.2061h-18.475L591.69372,458.79388h14.94Zm115.7422-72.738c10.58507,0,15.62369,5.71242,15.62369,17.977v6.88419H706.762v-6.88419c0-12.26459,5.03861-17.977,15.62368-17.977Zm-30.07559,18.98278v25.203c0,19.64678,10.58508,30.23183,29.73384,30.23183s29.23583-8.56374,29.90961-26.70675H737.99963c-.498,10.91705-5.37065,15.45769-15.95572,15.45769S706.762,443.346,706.762,431.08136v-8.4075h45.52351v-17.977c0-19.48078-10.40925-29.89983-29.89983-29.89983s-30.07558,10.58505-30.07558,30.23183ZM808.7261,390.25473V375.80281h-1.51353c-10.25305,0-17.30321,4.54063-21.32636,13.10437V376.47659H772.27407V458.7939H786.726V408.89575c0-10.917,5.20466-18.98278,18.641-18.98278a15.353,15.353,0,0,1,3.35909.34177Zm39.63537,58.80365c-10.5753,0-15.4577-5.72217-15.4577-17.977V404.19887c0-12.25483,4.87263-17.96724,15.4577-17.96724s15.4577,5.71242,15.4577,17.96724v26.88251C863.81917,443.33621,858.94655,449.05838,848.36147,449.05838Zm0,11.41506c19.49057,0,29.9096-10.57528,29.9096-30.23184v-25.203c0-19.64678-10.40925-30.23183-29.9096-30.23183s-29.89983,10.58505-29.89983,30.23183v25.203c0,19.65656,10.40926,30.23183,29.89983,30.23183Zm61.323-64.67229c0-6.55219,4.53089-9.91128,12.43058-9.91128,9.40351,0,13.26062,4.53087,13.26062,14.44214h13.7879c0-17.46923-8.07551-25.535-27.04852-25.535-16.97123,0-26.38452,8.40749-26.38452,23.01564,0,13.60237,8.72974,18.475,19.82254,23.85541l8.56375,4.19887c8.72974,4.1891,11.76658,6.21042,11.76658,12.93837,0,7.226-5.03861,10.57529-13.77812,10.57529-10.08706,0-14.4519-4.69687-14.4519-15.11592H893.87521c0,17.977,8.72974,26.20873,28.23,26.20873,17.63523,0,27.71252-8.72973,27.71252-23.68941,0-13.60236-8.73951-18.475-19.82254-23.85541l-8.56376-4.19887c-8.72974-4.19887-11.7568-6.21041-11.7568-12.93836Zm103.9854,35.28024c0,11.75682-4.54066,17.13724-14.61788,17.13724-11.09281,0-16.29747-7.40173-16.29747-19.65656V405.87843c0-12.25483,5.20466-19.65656,16.29747-19.65656,10.07728,0,14.61788,5.38041,14.61788,17.13724Zm14.44213-.34177V403.69111c0-18.81678-9.5695-28.894-25.867-28.894-9.41329,0-16.29746,4.03286-20.32056,11.75681V376.4766H968.3123V489.02574h14.4519V449.38063c4.03287,6.71819,10.75106,10.253,19.4808,10.253C1018.54246,459.63367,1028.112,449.55638,1028.112,430.73962Zm43.678,17.645q-13.09452,0-13.10441-13.61214v-2.51933c0-9.56951,5.87843-13.27036,21.83409-13.27036h7.56772v12.09859c0,11.25882-5.71239,17.313-16.2974,17.313Zm-3.19311,11.25881c9.56955,0,16.62949-3.86686,20.48654-11.25881v10.40928h13.43638V401.1718c0-17.977-9.23747-26.37474-28.55228-26.37474-18.31878,0-27.39032,8.06573-27.71252,24.6952h13.94417c.17582-8.9055,4.87263-13.61214,13.77813-13.61214,9.56955,0,14.11009,4.87264,14.11009,15.29168V407.558h-8.40748c-24.18744,0-35.44629,8.056-35.44629,25.535v2.51932c0,14.61791,9.56956,24.02143,24.36314,24.02143Zm83.48908.83978c19.65656,0,28.55228-9.23751,28.55228-29.89983H1166.694c0,13.27037-4.36484,18.475-14.61788,18.475s-15.29172-5.72218-15.29172-17.977V404.19888c0-12.25483,4.87263-17.96723,15.29172-17.96723s14.452,4.53087,14.61788,17.46923h13.94417c-.166-20.15455-8.72968-28.894-28.55228-28.894s-29.73378,10.58505-29.73378,30.23184v25.203c0,19.65656,10.40931,30.23183,29.73378,30.23183Zm74.25161-74.41759c10.57524,0,15.62369,5.71242,15.62369,17.977v6.88419h-31.2376v-6.88419c0-12.26459,5.03867-17.977,15.62369-17.977Zm-30.07564,18.98279v25.203c0,19.64678,10.585,30.23182,29.73378,30.23182s29.23577-8.56373,29.9096-26.70674h-13.94417c-.498,10.917-5.37064,15.45768-15.95565,15.45768s-15.282-5.87841-15.282-18.143v-8.4075H1256.247v-17.977c0-19.48078-10.40932-29.89984-29.89983-29.89984s-30.07565,10.58506-30.07565,30.23184Zm-758.96946,55.4348a68.6482,68.6482,0,0,0,32.59492-7.724V392.79358h-36.12v12.5966H455.2694v38.97134a46.65689,46.65689,0,0,1-17.80125,3.52509c-18.15277,0-25.037-8.72974-25.037-31.40361V375.98835c0-14.94992,8.40749-23.85542,22.51764-23.85542s20.48657,6.55218,20.82832,20.66232h15.29169c-.50776-22.68363-11.9326-33.25892-36.12-33.25892s-37.30156,13.10437-37.30156,36.95978v39.30334c0,31.08137,12.0986,44.68374,39.64511,44.68374ZM201.42364,362.22c0-16.483,11.15141-32.507,17.25441-29.46042,6.933,3.47627-5.19488,19.01208-17.25441,29.46042m-75.97994,6.02488c0-13.26061,13.09461-38.4831,21.10174-35.82707C155.988,335.56205,138.71407,360.99937,125.4437,368.24485Zm-13.26061,94.86509c-6.02488.27341-10.03821-3.58368-10.03821-10.00893,0-17.2837,23.95306-33.77645,42.04724-42.63314C140.9795,434.58694,132.83566,462.16275,112.18309,463.10994Zm110.53759-56.27458c-13.65119,0-24.11906,10.05776-24.11906,22.10752,0,10.05775,6.02488,18.08442,14.07108,18.08442,2.822,0,5.61477-1.60142,5.61477-5.22417,0-5.22418-6.92325-6.49359-6.38618-14.31521.34177-5.15582,5.19488-8.60279,10.00893-8.60279,9.64763,0,14.159,9.34492,14.159,18.99254-.41012,14.8718-11.3467,25.22249-24.20694,25.22249-16.88336,0-27.72228-16.08263-27.72228-33.37609,0-25.72049,16.87358-35.76849,25.71073-38.18039.08788,0,23.12305,4.111,22.40047-6.04442-.31249-4.45275-6.95254-6.16159-11.7666-6.36665a32.50768,32.50768,0,0,0-10.70223,1.70885c-2.81227-1.4159-4.75546-4.17934-5.94676-7.38219,16.47322-12.46966,28.1324-24.51943,28.1324-38.19015,0-7.23573-4.82382-13.67073-14.07109-13.67073-16.47322,0-28.94288,20.89668-28.94288,39.79158a34.23323,34.23323,0,0,0,.81048,9.24727c-10.44834,7.63608-18.22113,12.372-32.29222,20.81856a72.32864,72.32864,0,0,1,1.5526-12.18648c4.82382-5.22417,11.44436-13.04578,11.44436-19.08043,0-2.81226-1.60143-5.22417-4.82382-5.22417-8.03643,0-14.06131,12.04977-15.67251,20.49633-3.62275,4.42346-10.8487,10.05774-16.88335,10.05774-4.82382,0-6.42525-4.43321-6.83537-6.03465,15.28192-5.23393,34.16705-26.13062,34.16705-45.02551,0-4.02311-1.61118-12.87-13.661-12.87-18.09418,0-33.36633,26.93134-33.36633,47.83779-6.435,0-8.83715-6.83537-8.83715-12.05953s2.01154-10.45811,2.01154-12.05954-.81048-3.62274-3.22239-3.62274c-6.03465,0-9.64762,8.03644-9.64762,17.28371.41012,12.86025,8.84691,20.90645,20.10573,21.70716,1.61119,7.63608,8.44656,14.87179,16.88335,14.87179,5.23393,0,11.65918-1.60143,16.08263-5.62452-.41012,2.822-.80071,5.22418-1.21083,7.63608-17.68406,9.24728-30.54431,15.68228-42.20349,26.12086-9.2375,8.44655-14.47144,19.69561-14.47144,28.55229,0,12.05954,7.63608,23.29883,23.30859,23.29883,18.49455,0,32.55586-14.862,39.39122-35.36813,3.22239-9.64763,4.51134-23.67965,5.31206-36.54967a367.03072,367.03072,0,0,0,36.89143-23.33788,16.325,16.325,0,0,0,4.02309,4.82382c-8.43679,4.42345-28.53276,16.88335-28.53276,46.21682,0,20.90645,14.07109,44.215,41.80313,44.215,22.90824,0,38.59051-18.87537,38.59051-36.96956,0-16.483-9.24727-31.75514-26.94109-31.75514ZM291.82621,441.354c-.06836.127-.30271.31249-.74214.15625-.34177-.127-.44917-.30271-.43942-.51754a110.29432,110.29432,0,0,0,4.83359-30.94467c-.05859-17.69382-7.2455-28.54252-16.47322-28.54252-5.6343,0-9.64764,4.0231-9.64764,10.048,0,10.85846,13.2606,11.65918,13.2606,35.37788,0,9.64764-2.01155,18.87537-5.22418,28.94288-14.87179,50.23994-62.30922,73.54852-108.526,73.54852-21.30681,0-36.452-4.37464-40.96335-6.39593a.66067.66067,0,0,1-.1953-.80072c.10742-.28319.41989-.48824.58589-.41014a100.495,100.495,0,0,0,30.90561,4.8043c17.68406,0,28.14216-7.226,28.14216-16.09241A9.9533,9.9533,0,0,0,177.285,500.48961c-10.8487,0-11.65918,13.661-34.96777,13.661-10.048,0-18.88513-2.00177-29.34324-5.22417-49.83956-15.27216-73.59734-62.30922-73.55828-108.93616a134.12414,134.12414,0,0,1,6.48383-40.96336.6344.6344,0,0,1,.71283-.11718c.3613.11718.459.42966.41989.51754A105.77025,105.77025,0,0,0,42.228,390.34259c0,17.69383,7.23572,28.14218,16.47322,28.14218a9.52362,9.52362,0,0,0,9.64763-9.63786c0-10.85846-13.2606-12.05954-13.2606-35.37788,0-10.05776,2.01155-18.8949,5.22417-29.34324,15.29172-49.83957,62.319-73.197,108.55537-73.55829,21.48257-.166,40.28958,6.25924,40.99265,6.8256a.641.641,0,0,1,.12694.7226c-.14646.37106-.40036.41989-.52729.40036-.22459-.0293-12.45013-5.13629-30.95443-5.13629-17.27394,0-28.12264,7.226-28.12264,16.483,0,5.22417,4.01334,9.63786,10.03822,9.63786,10.85846,0,11.66894-13.2606,34.96776-13.2606,10.05775,0,18.88513,2.01155,29.34324,5.22417,50.25946,15.27215,73.12864,62.70957,73.5583,108.526a125.92037,125.92037,0,0,1-6.45453,41.36371ZM168.86779,261.72059A138.27453,138.27453,0,1,0,307.12767,400,138.28654,138.28654,0,0,0,168.86779,261.72059Zm0,283.38439a145.105,145.105,0,1,1,0-290.21c80.003,0,145.105,65.11172,145.105,145.105s-65.13125,145.105-145.105,145.105Z" transform="translate(-4.64865 -235.81081)" style="fill:#04255c"/><rect width="1270.7027" height="328.37838" style="fill:none"/></svg>