<svg id="Layer_1" data-name="Layer 1" xmlns="http://www.w3.org/2000/svg" width="482.3" height="133.16" viewBox="0 0 482.3 133.16"><defs><style>.cls-1{fill:#a20016;}.cls-2{stroke:#000;stroke-width:0.38px;}</style></defs><title>united-therapeutics-logo-freelogovectors.net</title><path d="M148.17,183.42V206.9c0,5.91-.5,8.06,5,8.06s7.28-.92,7.28-8.06l.06-23.48h10.85v26.64c0,8.4-4.31,13.87-18.19,14-13.88-.17-18.13-5.64-18.13-14V183.42h13.1" transform="translate(-8.85 -183.42)"/><path d="M178.44,222.79v-28h11.82v4.77h.12c1.75-4.65,6-6,10.26-6,4.94,0,10.38,3.22,10.63,10v19.22h-12V206c0-2.92-1.32-4.24-4-4.24a4.91,4.91,0,0,0-4.81,5v16h-12" transform="translate(-8.85 -183.42)"/><path d="M218.74,183.74h13.74v7.68H218.74Zm0,11.33h13.74v27.7H218.74Z" transform="translate(-8.85 -183.42)"/><path d="M243.59,193.37v-9.58h13.07v9.58h7.25v7.87h-7.25v11.43c0,2.19,1.16,3.19,4,3.19a6.36,6.36,0,0,0,2.54-.37v7.25a24,24,0,0,1-8.35,1.24c-6.36,0-11.36-1.87-11.36-8.06V201.24h-4.31v-7.87h4.38" transform="translate(-8.85 -183.42)"/><path d="M291.69,214.32a5.59,5.59,0,0,1-5.31,3.46c-3.94,0-5.92-2.51-6.29-6.75h23.2c.61-8.17-3.83-17.48-16.91-17.48-10.11,0-17.4,5.37-17.4,15.7C269,219,277.13,224,286.26,224c6.91,0,14-3,16.41-9.66h-11m-11.6-9.25a6.1,6.1,0,0,1,12.15,0Z" transform="translate(-8.85 -183.42)"/><path d="M329,197c-2.23-2.55-5.25-3.27-8.32-3.27-9.28.18-12,8.9-12,15.49,0,9.2,6.47,14.77,12.24,14.77,3.82,0,7.05-1.6,8.64-4.51h.11v3.33h13v-39H329V197m2.65,11.86c0,5.16-2.28,7.66-5.45,7.66s-5.39-2.5-5.39-7.66,2.21-7.65,5.39-7.65S331.61,203.69,331.61,208.85Z" transform="translate(-8.85 -183.42)"/><polyline points="132.84 90.58 132.84 59.63 123.06 59.63 123.06 51.11 151.81 51.11 151.81 59.63 142.03 59.63 142.03 90.58 132.84 90.58"/><path d="M163.51,274V234.45h10.74v15.76h-.11c1.68-4.69,5.45-6,9.33-6,4.44,0,9.34,3.29,9.56,10.23V274H182.24V256.9c0-3-1.19-4.32-3.6-4.32s-4.33,2.44-4.33,5.11V274h-10.8" transform="translate(-8.85 -183.42)"/><path d="M217.83,265.17a5.49,5.49,0,0,1-5.2,3.56c-3.87,0-5.8-2.58-6.16-6.94h22.71c.61-8.4-3.74-18-16.55-18-9.91,0-17,5.52-17,16.13,0,10,8,15.15,16.92,15.15,6.77,0,13.72-3.06,16.07-9.93H217.83m-11.36-9.51c.42-3.19,2.6-5.71,6-5.71s5.56,2.52,5.92,5.71Z" transform="translate(-8.85 -183.42)"/><path d="M232.5,274V244.32h8.85V249h.1c1.87-4.72,3.78-6.25,9.67-6.25v11.87a7.13,7.13,0,0,0-3.35-.83c-4.36,0-6.08,2.87-6.08,8.36V274H232.5" transform="translate(-8.85 -183.42)"/><path d="M265.05,253.24c.11-2.7,2-3.68,4.4-3.68s4.24.86,4.24,3.56c0,2-2.21,3.44-7.45,3.44-9.54,0-13.24,3.07-13.24,9.52,0,7.55,7,9,10.79,9,2.68,0,7.46-1.34,9.84-5.27h.12c0,1,0,2.68,0,4.05h10.36c0-2.71,0-4.36,0-7.55V255.88c0-7.37-3.39-12.09-15.68-12.09-6.73,0-13.23,1.78-14.43,9.45h11m8.22,11.61c-.11,2.09-2.38,4.11-5.24,4.11a3.67,3.67,0,0,1-3.82-3.62c0-4.85,7-3.87,9.42-6.51Z" transform="translate(-8.85 -183.42)"/><path d="M298,270.85c2.27,2.65,5.34,3.37,8.47,3.37,9.44-.18,12.19-9,12.19-15.68,0-9.31-6.58-15-12.45-15-3.89,0-7.18,1.62-8.8,4.56h-.1v-3.92h-9.66v39.56H298V270.85m0-12c0-5.22,2.06-7.74,4.92-7.74s4.85,2.52,4.85,7.74-2,7.75-4.85,7.75S298,264.13,298,258.9Z" transform="translate(-8.85 -183.42)"/><path d="M341.6,265.17a5.16,5.16,0,0,1-4.88,3.56c-3.62,0-5.44-2.58-5.78-6.94h21.32c.57-8.4-3.51-18-15.54-18-9.3,0-16,5.52-16,16.13,0,10,7.49,15.15,15.88,15.15,6.35,0,12.87-3.06,15.08-9.93H341.6m-10.66-9.51c.39-3.19,2.44-5.71,5.61-5.71s5.22,2.52,5.56,5.71Z" transform="translate(-8.85 -183.42)"/><path d="M385.41,244v29.8H374.72v-5.07h-.12c-1.58,4.94-5.37,6.33-9.27,6.33-4.46,0-9.39-3.42-9.61-10.65V244h10.86v17.81c0,3.11,1.18,4.51,3.61,4.51s4.36-2.54,4.36-5.33V244h10.86" transform="translate(-8.85 -183.42)"/><path d="M392.88,244.2v-9.75H404.6v9.75h6.51v8H404.6v11.54c0,2.2,1,3.21,3.62,3.21a5.11,5.11,0,0,0,2.27-.37v7.31A19,19,0,0,1,403,275.1c-5.71,0-10.19-1.89-10.19-8.13V252.15H389v-8h3.93" transform="translate(-8.85 -183.42)"/><path d="M415,234.45h10.27v6H415Zm0,9.61h10.27V274H415Z" transform="translate(-8.85 -183.42)"/><path d="M449.32,255.23a6.69,6.69,0,0,0-1.16-3.07,3.25,3.25,0,0,0-2.64-1.1c-2.65,0-4.34,2.76-4.34,8,0,7.49,2.22,8.84,4.44,8.84,3.07,0,3.81-2,4-4.54h10.15c-.26,4.41-2.06,7.36-4.71,9.2a17,17,0,0,1-9.67,2.57c-8.35,0-14.91-5.64-14.91-15.82,0-7.24,5.07-15.46,15.12-15.46,7.09,0,13.11,4.17,14.17,11.41H449.32" transform="translate(-8.85 -183.42)"/><path d="M473,266a5.36,5.36,0,0,0,1.18,2.88,4.11,4.11,0,0,0,2.85,1c2.4,0,4-1.1,4-3.43,0-5.71-17.54,0-17.54-11.78,0-7.73,6.15-10.8,14.63-10.8,5.81,0,12.06,2,12.4,9.45H480.6a3.81,3.81,0,0,0-.79-3,3.52,3.52,0,0,0-2.73-1.16c-1.45,0-3.63.61-3.63,2.82,0,6.19,17.7.43,17.7,12.88,0,8.22-8.2,10.3-14.57,10.3-5.31,0-13.51-1.77-13.51-9.13H473" transform="translate(-8.85 -183.42)"/><path d="M25.5,306.75c-.75-1.85-2.73-2.8-5.05-2.8a5.69,5.69,0,0,0-5.74,5.69,5.39,5.39,0,0,0,5.74,5.7c2.52,0,4.89-1.41,5.22-3.35H27.5c-.84,3-3.61,4.59-7,4.59-4.58,0-7.63-3-7.63-6.94s3.67-6.94,7.63-6.94c3.58,0,6.08,1.51,6.81,4.05H25.5" transform="translate(-8.85 -183.42)"/><path d="M61,309.64c0,3.94,3.05,6.94,7.62,6.94,4,0,7.62-3,7.62-6.94s-3-6.94-7.62-6.94c-4,0-7.62,3-7.62,6.94m13.36,0a5.7,5.7,0,0,1-5.74,5.7,5.39,5.39,0,0,1-5.73-5.7A5.69,5.69,0,0,1,68.58,304,5.38,5.38,0,0,1,74.32,309.64Z" transform="translate(-8.85 -183.42)"/><path d="M122.78,316.18a3,3,0,0,1-.83-2.31v-1.46c0-1.91-.4-2.35-2.33-2.82v0a3.17,3.17,0,0,0,2.55-2.87c0-2.33-1.81-3.57-4.44-3.57h-6.81v13.07h1.71v-5.86h5c1.94,0,2.57.48,2.57,2v2a3.13,3.13,0,0,0,.49,1.92h2.06m-10.15-11.83h4.84c1.69,0,3,.77,3,2.36s-1.29,2.37-3,2.37h-4.84Z" transform="translate(-8.85 -183.42)"/><path d="M157.3,316.18H159v-5.05h4c3.16,0,5.4-1.43,5.4-4s-2.24-4-5.4-4H157.3v13.07M159,304.35h4.13c2,0,3.52.81,3.52,2.77s-1.5,2.76-3.52,2.76H159Z" transform="translate(-8.85 -183.42)"/><path d="M201.7,309.64c0,3.94,3.06,6.94,7.62,6.94,4,0,7.63-3,7.63-6.94s-3.06-6.94-7.63-6.94c-3.95,0-7.62,3-7.62,6.94m13.36,0a5.69,5.69,0,0,1-5.74,5.7,5.39,5.39,0,0,1-5.73-5.7,5.69,5.69,0,0,1,5.73-5.69A5.38,5.38,0,0,1,215.06,309.64Z" transform="translate(-8.85 -183.42)"/><path d="M263.53,316.18a2.92,2.92,0,0,1-.84-2.31v-1.46c0-1.91-.4-2.35-2.33-2.82v0a3.16,3.16,0,0,0,2.55-2.87c0-2.33-1.8-3.57-4.44-3.57h-6.81v13.07h1.71v-5.86h5c1.93,0,2.57.48,2.57,2v2a3.13,3.13,0,0,0,.48,1.92h2.07m-10.16-11.83h4.84c1.69,0,3,.77,3,2.36s-1.3,2.37-3,2.37h-4.84Z" transform="translate(-8.85 -183.42)"/><path d="M296.13,316.18H298l1.5-3h8.28l1.43,3H311l-6.52-13.07H303l-6.85,13.07m7.53-11.46,3.52,7.25h-7.12Z" transform="translate(-8.85 -183.42)"/><polyline points="343.9 119.69 343.9 121.01 339.02 121.01 339.02 132.76 337.31 132.76 337.31 121.01 332.43 121.01 332.43 119.69 343.9 119.69"/><rect x="377.51" y="119.69" width="1.71" height="13.07"/><path d="M422.44,309.64c0,3.94,3.05,6.94,7.62,6.94,4,0,7.62-3,7.62-6.94s-3.05-6.94-7.62-6.94c-3.95,0-7.62,3-7.62,6.94m13.35,0a5.69,5.69,0,0,1-5.73,5.7,5.39,5.39,0,0,1-5.74-5.7,5.7,5.7,0,0,1,5.74-5.69A5.37,5.37,0,0,1,435.79,309.64Z" transform="translate(-8.85 -183.42)"/><polyline points="463.17 119.69 464.87 119.69 474.57 130.31 474.62 130.31 474.62 119.69 476.33 119.69 476.33 132.76 474.62 132.76 464.93 121.98 464.89 121.98 464.89 132.76 463.17 132.76 463.17 119.69"/><path class="cls-1" d="M9.26,256.35c0,.19,0,.35,0,.52H61.69a8.67,8.67,0,0,0-.84-4.43c-.28-.55-.53-1.05-.77-1.55H10.15a44.66,44.66,0,0,0-.89,5.46" transform="translate(-8.85 -183.42)"/><path class="cls-1" d="M9,260.05A36,36,0,0,0,9,266H58.32a17.48,17.48,0,0,0,1.06-1.85,26.87,26.87,0,0,0,1.71-4.13H9" transform="translate(-8.85 -183.42)"/><path class="cls-1" d="M58.08,192.79c-.43-.81-.89-1.61-1.39-2.44-1.41-2.35-4.89-4.16-7.58-1.23-1.07,1.18-2.42,2.5-3.65,3.67H58.08" transform="translate(-8.85 -183.42)"/><path class="cls-1" d="M15.62,234.6c-.51,1.25-1,2.58-1.57,4H49.51a45.1,45.1,0,0,1-5.39-6H16.45c-.28.65-.56,1.32-.83,2" transform="translate(-8.85 -183.42)"/><path class="cls-1" d="M10.93,247.72H58.38a23.52,23.52,0,0,0-4.62-5.3l-.76-.68H12.86c-.69,1.93-1.36,3.92-1.93,6" transform="translate(-8.85 -183.42)"/><path class="cls-1" d="M42,196h0c-1.57,1.65-3.51,3.71-5.55,6H61.13a33,33,0,0,0-1.6-6H42" transform="translate(-8.85 -183.42)"/><path class="cls-1" d="M9.27,269.21a21.88,21.88,0,0,0,1.31,6H47.66a50.74,50.74,0,0,0,8-6H9.27" transform="translate(-8.85 -183.42)"/><path class="cls-1" d="M12.32,278.36a12.92,12.92,0,0,0,3,2.93C19.28,284,23.44,284,27.6,283.5c3.53-.42,8.33-1.75,14.65-5.14H12.32" transform="translate(-8.85 -183.42)"/><path class="cls-1" d="M33.67,205.12c-1.66,1.93-3.31,3.95-4.83,6h33.3c-.11-1.75-.28-3.93-.52-6H33.67" transform="translate(-8.85 -183.42)"/><path class="cls-1" d="M42.21,223.43H21.08c-1.18,2.08-2.21,4-3.16,6H42.5a14.44,14.44,0,0,1-.29-6" transform="translate(-8.85 -183.42)"/><path class="cls-1" d="M46.85,214.28H26.59c-.5.74-1,1.49-1.44,2.23-.8,1.33-1.53,2.56-2.23,3.74H42.67c0-.18.06-.38.08-.57a6.31,6.31,0,0,1,4.1-5.4" transform="translate(-8.85 -183.42)"/><path class="cls-1" d="M123.73,256.35c0,.19,0,.35,0,.52H71.3a8.67,8.67,0,0,1,.84-4.43c.28-.55.52-1.05.77-1.54h49.93a44.2,44.2,0,0,1,.89,5.45" transform="translate(-8.85 -183.42)"/><path class="cls-1" d="M124,260.05a37.12,37.12,0,0,1-.05,6H74.66a19.28,19.28,0,0,1-1-1.85,25.91,25.91,0,0,1-1.71-4.13H124" transform="translate(-8.85 -183.42)"/><path class="cls-1" d="M74.91,192.79c.43-.81.89-1.61,1.39-2.44,1.41-2.35,4.89-4.16,7.58-1.23,1.07,1.18,2.41,2.5,3.65,3.67H74.91" transform="translate(-8.85 -183.42)"/><path class="cls-1" d="M117.37,234.6c.5,1.25,1,2.58,1.57,4H83.48a45,45,0,0,0,5.38-6h27.67c.29.65.56,1.32.84,2" transform="translate(-8.85 -183.42)"/><path class="cls-1" d="M122.06,247.72H74.61a23.27,23.27,0,0,1,4.62-5.3l.76-.68h40.14c.69,1.93,1.35,3.93,1.93,6" transform="translate(-8.85 -183.42)"/><path class="cls-1" d="M91,196h0c1.57,1.65,3.51,3.71,5.54,6H71.86a33.86,33.86,0,0,1,1.59-6H91" transform="translate(-8.85 -183.42)"/><path class="cls-1" d="M123.71,269.21a21.89,21.89,0,0,1-1.3,6H85.33a50.27,50.27,0,0,1-8-6h46.37" transform="translate(-8.85 -183.42)"/><path class="cls-1" d="M120.66,278.36a12.68,12.68,0,0,1-3,2.93c-3.92,2.69-8.07,2.69-12.23,2.21-3.54-.42-8.33-1.75-14.65-5.14h29.92" transform="translate(-8.85 -183.42)"/><path class="cls-1" d="M99.32,205.12c1.66,1.93,3.31,3.95,4.83,6H70.85c.11-1.75.28-3.93.52-6H99.32" transform="translate(-8.85 -183.42)"/><path class="cls-1" d="M90.78,223.43h21.13c1.18,2.08,2.21,4,3.16,6H90.49a14.45,14.45,0,0,0,.29-6" transform="translate(-8.85 -183.42)"/><path class="cls-1" d="M86.13,214.28H106.4c.5.74,1,1.49,1.44,2.22l2.23,3.75H90.32l-.09-.57a6.29,6.29,0,0,0-4.1-5.4" transform="translate(-8.85 -183.42)"/><line class="cls-2" x1="4.32" y1="107.47" x2="478.61" y2="107.47"/></svg>